<svg width="69" height="69" viewBox="0 0 69 69" fill="none" xmlns="http://www.w3.org/2000/svg">
<circle cx="34.5" cy="34.5" r="34.5" fill="#714846"/>
<path d="M22 34C21.4477 34 21 34.4477 21 35C21 35.5523 21.4477 36 22 36V34ZM47.7071 35.7071C48.0976 35.3166 48.0976 34.6834 47.7071 34.2929L41.3431 27.9289C40.9526 27.5384 40.3195 27.5384 39.9289 27.9289C39.5384 28.3195 39.5384 28.9526 39.9289 29.3431L45.5858 35L39.9289 40.6569C39.5384 41.0474 39.5384 41.6805 39.9289 42.0711C40.3195 42.4616 40.9526 42.4616 41.3431 42.0711L47.7071 35.7071ZM22 36H47V34H22V36Z" fill="white"/>
</svg>
