<svg width="69" height="69" viewBox="0 0 69 69" fill="none" xmlns="http://www.w3.org/2000/svg">
<circle cx="34.5" cy="34.5" r="34.5" transform="rotate(-180 34.5 34.5)" fill="#714846"/>
<path d="M47 35C47.5523 35 48 34.5523 48 34C48 33.4477 47.5523 33 47 33L47 35ZM21.2929 33.2929C20.9024 33.6834 20.9024 34.3166 21.2929 34.7071L27.6569 41.0711C28.0474 41.4616 28.6805 41.4616 29.0711 41.0711C29.4616 40.6805 29.4616 40.0474 29.0711 39.6569L23.4142 34L29.0711 28.3431C29.4616 27.9526 29.4616 27.3195 29.0711 26.9289C28.6805 26.5384 28.0474 26.5384 27.6569 26.9289L21.2929 33.2929ZM47 33L22 33L22 35L47 35L47 33Z" fill="white"/>
</svg>
