<?xml version="1.0" standalone="no"?>
<svg xmlns:xlink="http://www.w3.org/1999/xlink" id="wave" style="transform:rotate(0deg); transition: 0.3s" viewBox="0 0 1440 180" version="1.1" xmlns="http://www.w3.org/2000/svg"><defs><linearGradient id="sw-gradient-0" x1="0" x2="0" y1="1" y2="0"><stop stop-color="rgba(243, 106, 62, 1)" offset="0%"/><stop stop-color="rgba(255, 179, 11, 1)" offset="100%"/></linearGradient></defs><path style="transform:translate(0, 0px); opacity:1" fill="url(#sw-gradient-0)" d="M0,90L26.7,102C53.3,114,107,138,160,126C213.3,114,267,66,320,48C373.3,30,427,42,480,66C533.3,90,587,126,640,135C693.3,144,747,126,800,99C853.3,72,907,36,960,33C1013.3,30,1067,60,1120,81C1173.3,102,1227,114,1280,108C1333.3,102,1387,78,1440,84C1493.3,90,1547,126,1600,129C1653.3,132,1707,102,1760,102C1813.3,102,1867,132,1920,138C1973.3,144,2027,126,2080,105C2133.3,84,2187,60,2240,51C2293.3,42,2347,48,2400,63C2453.3,78,2507,102,2560,120C2613.3,138,2667,150,2720,144C2773.3,138,2827,114,2880,99C2933.3,84,2987,78,3040,72C3093.3,66,3147,60,3200,60C3253.3,60,3307,66,3360,72C3413.3,78,3467,84,3520,81C3573.3,78,3627,66,3680,75C3733.3,84,3787,114,3813,129L3840,144L3840,180L3813.3,180C3786.7,180,3733,180,3680,180C3626.7,180,3573,180,3520,180C3466.7,180,3413,180,3360,180C3306.7,180,3253,180,3200,180C3146.7,180,3093,180,3040,180C2986.7,180,2933,180,2880,180C2826.7,180,2773,180,2720,180C2666.7,180,2613,180,2560,180C2506.7,180,2453,180,2400,180C2346.7,180,2293,180,2240,180C2186.7,180,2133,180,2080,180C2026.7,180,1973,180,1920,180C1866.7,180,1813,180,1760,180C1706.7,180,1653,180,1600,180C1546.7,180,1493,180,1440,180C1386.7,180,1333,180,1280,180C1226.7,180,1173,180,1120,180C1066.7,180,1013,180,960,180C906.7,180,853,180,800,180C746.7,180,693,180,640,180C586.7,180,533,180,480,180C426.7,180,373,180,320,180C266.7,180,213,180,160,180C106.7,180,53,180,27,180L0,180Z"/></svg>